<?xml version="1.0" encoding="utf-8"?>
<!-- Generator: Adobe Illustrator 24.1.0, SVG Export Plug-In . SVG Version: 6.00 Build 0)  -->
<svg version="1.1" id="Layer_1" xmlns="http://www.w3.org/2000/svg" xmlns:xlink="http://www.w3.org/1999/xlink" x="0px" y="0px"
	 viewBox="0 0 230 100" style="enable-background:new 0 0 230 100;" xml:space="preserve">
<style type="text/css">
	.st0{fill:#1D2681;}
	.st1{fill:#1ADFFF;}
	.st2{fill:#FFFFFF;}
</style>
<rect x="-478.6" y="387.23" class="st0" width="183.83" height="89.01"/>
<rect x="-478.6" y="295.12" class="st1" width="183.83" height="89.01"/>
<g>
	<g>
		<g>
			<path class="st1" d="M89.64,43.06v-0.01c-0.16-1.04-0.38-2.08-0.65-3.1c-1.38-5.25-4.03-9.92-7.56-13.73
				c1.37-2.02,2.72-4.07,4.03-6.17l-3.06-2.06c-1.34,1.76-2.75,3.49-4.17,5.21c-0.22-0.18-0.44-0.38-0.66-0.55
				c-5.61-4.42-12.66-7-20.17-7c-3.41,0-6.74,0.51-9.93,1.53c-0.53,0.17-1.05,0.36-1.57,0.55c-0.51,0.2-1.03,0.4-1.53,0.63
				c-0.01,0-0.02,0.01-0.04,0.01L43.8,18.6c-0.34,0.16-0.69,0.32-1.03,0.49c-0.44,0.22-0.87,0.45-1.3,0.7
				c-10.26,5.74-16.75,16.68-16.75,28.53c0,7.98,2.88,15.3,7.65,20.97c-2.51,2.03-5.06,3.99-7.65,5.81l7.23,9.26
				c5.47-4.72,10.42-9.74,15.18-14.89c4.75-5.15,9.3-10.44,13.7-15.81c4.4-5.38,8.65-10.87,12.78-16.44
				c1.17-1.59,2.34-3.19,3.49-4.8c0.03,0.04,0.08,0.08,0.11,0.13c0.22,0.27,0.43,0.54,0.62,0.82c0.42,0.55,0.8,1.13,1.15,1.72
				c0.18,0.29,0.36,0.59,0.53,0.89c0.49,0.86,0.92,1.75,1.3,2.67c-2.26,0.64-4.6,0.97-6.99,0.97c-0.55,0-1.09-0.01-1.63-0.05
				c-1.51,2.28-3.03,4.56-4.57,6.81c2.01,0.38,4.09,0.59,6.2,0.59c2.99,0,5.92-0.4,8.75-1.19c0.1,0.83,0.13,1.68,0.13,2.54
				c0,0.58-0.02,1.15-0.06,1.73c-0.01,0.28-0.04,0.58-0.07,0.86c-0.13,1.31-0.37,2.62-0.7,3.89c-0.09,0.34-0.18,0.69-0.29,1.03
				c-0.01,0.04-0.02,0.07-0.04,0.11c-0.05,0.17-0.11,0.34-0.17,0.5c-0.13,0.43-0.28,0.83-0.45,1.25c-0.17,0.44-0.36,0.87-0.56,1.3
				c-0.18,0.42-0.38,0.82-0.6,1.21c-0.02,0.06-0.06,0.13-0.1,0.2h-0.01c-3,1.21-6.16,1.84-9.47,1.84c-4.25,0-8.26-1.05-11.79-2.92
				c-1.46,1.99-2.95,3.96-4.47,5.91c4.79,2.78,10.34,4.36,16.26,4.36c0.36,0,0.71,0,1.07-0.02c-4.03,2.63-8.81,4.08-13.85,4.08
				c-3.14,0-6.14-0.58-8.92-1.63c-1.64,1.97-3.3,3.93-5.01,5.86c4.23,2.01,8.96,3.13,13.93,3.13c11.01,0,21.39-5.66,27.37-14.83
				c0.22-0.33,0.43-0.66,0.63-0.99c3.06-5.06,4.68-10.88,4.68-16.85C90.07,46.55,89.92,44.79,89.64,43.06z M37.99,64.55
				c-3.69-4.39-5.92-10.05-5.92-16.23c0-5.96,2.12-11.61,5.76-16.05c-0.22,1.53-0.33,3.09-0.33,4.64c0,8.04,2.92,15.39,7.76,21.09
				c-1.64,1.53-3.29,3.04-4.95,4.53C39.54,63.21,38.77,63.87,37.99,64.55z M50.61,52.91c-3.58-4.37-5.76-9.94-5.76-16
				c0-2.08,0.25-4.14,0.75-6.14c3.31,5.66,8.26,10.16,14.11,12.97c-1.53,1.59-3.05,3.19-4.61,4.75
				C53.61,49.97,52.12,51.45,50.61,52.91z M65.09,38.04c-6.57-2.41-11.94-7.46-14.68-14.06c0.28-0.09,0.56-0.16,0.85-0.23
				c0.04-0.01,0.07-0.02,0.11-0.02c0.39-0.1,0.78-0.18,1.18-0.26c0.04-0.01,0.06-0.01,0.09-0.01c0.2-0.05,0.38-0.07,0.56-0.11
				c0.11-0.01,0.21-0.04,0.31-0.05c0.07-0.01,0.16-0.02,0.23-0.04c0.04,0,0.07-0.01,0.11-0.01c0.09-0.01,0.18-0.02,0.27-0.02
				c0.13-0.02,0.27-0.05,0.42-0.06h0.06c0.11-0.01,0.23-0.02,0.36-0.04c0.07-0.01,0.16-0.02,0.25-0.02
				c0.23-0.02,0.48-0.04,0.72-0.05c0.05-0.01,0.1-0.01,0.16-0.01c0.09-0.01,0.17-0.01,0.26-0.01c0.36-0.01,0.7-0.02,1.05-0.02
				c0.36,0,0.71,0.01,1.07,0.02c0.65,0.02,1.3,0.07,1.94,0.15c0.27,0.04,0.54,0.07,0.82,0.12c0.27,0.04,0.54,0.09,0.81,0.13
				c0.23,0.04,0.48,0.09,0.71,0.15c0.23,0.04,0.45,0.1,0.67,0.15c0.43,0.1,0.83,0.22,1.25,0.34c0.33,0.1,0.66,0.21,0.99,0.32
				c0.65,0.22,1.29,0.47,1.91,0.75c0.32,0.13,0.63,0.28,0.93,0.43c0.31,0.16,0.61,0.31,0.92,0.48c0.36,0.18,0.7,0.38,1.03,0.59
				c0.23,0.13,0.47,0.27,0.69,0.42c0.31,0.2,0.6,0.4,0.89,0.61c0.28,0.2,0.55,0.39,0.82,0.6c0.1,0.07,0.21,0.16,0.31,0.25
				c0.11,0.09,0.21,0.17,0.32,0.26c0,0,0.01,0.01,0.01,0.01c-1.42,1.62-2.85,3.24-4.29,4.84C67.84,35.1,66.46,36.56,65.09,38.04z"/>
		</g>
	</g>
	<g>
		<g>
			<path class="st2" d="M103.37,38.03c0-6.17,4.91-11.17,11.11-11.17c6.19,0,11.14,5,11.14,11.17c0,6.19-4.94,11.17-11.14,11.17
				C108.29,49.2,103.37,44.22,103.37,38.03z M121.6,38.03c0-3.96-3.16-7.18-7.12-7.18c-3.96,0-7.09,3.22-7.09,7.18
				s3.13,7.18,7.09,7.18C118.44,45.21,121.6,41.99,121.6,38.03z"/>
			<path class="st2" d="M129.19,31.48h3.99v2.59c0.8-1.73,2.29-2.59,4.47-2.59c1.28,0,2.26,0.3,3.07,0.74l-1.52,3.81
				c-0.6-0.39-1.25-0.69-2.41-0.69c-2.35,0-3.57,1.25-3.57,4.26v9.29h-4.02V31.48z"/>
			<path class="st2" d="M147.51,46.64v2.26h-3.99V26.86h4.02v6.82c1.22-1.55,3.28-2.56,5.63-2.56c4.38,0,8.58,3.31,8.58,9.08
				c0,5.72-4.35,9.05-8.52,9.05C150.84,49.26,148.79,48.3,147.51,46.64z M157.78,40.14c0-3.01-2.29-5.36-5.24-5.36
				c-2.98,0-5.18,2.38-5.18,5.36c0,3.01,2.2,5.42,5.18,5.42C155.49,45.56,157.78,43.18,157.78,40.14z"/>
			<path class="st2" d="M166.93,24.68c1.58,0,2.53,1.01,2.53,2.53s-0.95,2.5-2.53,2.5c-1.64,0-2.53-0.98-2.53-2.5
				S165.38,24.68,166.93,24.68z M164.9,31.48h4.05V48.9h-4.05V31.48z"/>
			<path class="st2" d="M172.14,31.48h2.98v-2.65l4.05-2.77v5.42h3.54v3.6h-3.54v6.52c0,3.04,0.45,3.51,3.54,3.51v3.78h-0.57
				c-5.39,0-7.03-1.73-7.03-7.27v-6.55h-2.98V31.48z"/>
			<path class="st2" d="M104.12,53.22h4.05v21.74h-4.05V53.22z"/>
			<path class="st2" d="M112.37,57.53h3.99v2.14c1.16-1.52,2.95-2.5,5.21-2.5c4.38,0,6.91,2.71,6.91,7.45v10.34h-4.08v-9.92
				c0-2.71-1.31-4.38-3.93-4.38c-2.29,0-4.08,1.67-4.08,4.74v9.56h-4.02V57.53z"/>
			<path class="st2" d="M132.29,57.53h3.99v2.14c1.16-1.52,2.95-2.5,5.21-2.5c4.38,0,6.91,2.71,6.91,7.45v10.34h-4.08v-9.92
				c0-2.71-1.31-4.38-3.93-4.38c-2.29,0-4.08,1.67-4.08,4.74v9.56h-4.02V57.53z"/>
			<path class="st2" d="M151.65,66.26c0-5.09,3.99-9.08,9.02-9.08c5,0,9.03,3.99,9.03,9.08c0,5-4.02,9.05-9.03,9.05
				C155.64,75.32,151.65,71.27,151.65,66.26z M165.74,66.26c0-2.95-2.2-5.3-5.06-5.3c-2.89,0-5.06,2.35-5.06,5.3
				c0,2.89,2.17,5.27,5.06,5.27C163.53,71.53,165.74,69.15,165.74,66.26z"/>
			<path class="st2" d="M170.71,57.53h4.2l4.5,12.27l4.41-12.27h4.14l-6.55,17.42h-4.05L170.71,57.53z"/>
			<path class="st2" d="M189.02,66.26c0-5.78,4.23-9.08,8.64-9.08c2.29,0,4.32,0.92,5.6,2.44v-2.08h4.02v17.42h-4.02v-2.26
				c-1.28,1.64-3.37,2.62-5.66,2.62C193.4,75.32,189.02,71.98,189.02,66.26z M203.47,66.2c0-2.98-2.2-5.36-5.21-5.36
				c-2.98,0-5.27,2.35-5.27,5.36c0,3.04,2.29,5.42,5.27,5.42C201.27,71.62,203.47,69.21,203.47,66.2z"/>
		</g>
	</g>
</g>
</svg>
